<?xml version="1.0" encoding="UTF-8"?>
<svg id="Capa_1" xmlns="http://www.w3.org/2000/svg" version="1.1" viewBox="0 0 65.2 65.2">
  <!-- Generator: Adobe Illustrator 30.4.0, SVG Export Plug-In . SVG Version: 2.1.4 Build 226)  -->
  <defs>
    <style>
      .st0 {
        fill: #727071;
      }
    </style>
  </defs>
  <path class="st0" d="M65.2,32.6c0,18-14.59,32.6-32.6,32.6S0,50.6,0,32.6,14.59,0,32.6,0s32.6,14.59,32.6,32.6ZM34.9,64.55l-.08-1.62c.12-.07.35-.02.36.05l.12,1.54c.12.07.31.06.47,0l-.16-1.4c-.02-.14,0-.27.11-.29.05,0,.12,0,.25.01l.19,1.56c.02.17.46.1.43-.08l-.21-1.53c.08-.03.18-.05.37-.05l.17,1.33c.02.18.09.28.18.32.05.02.32-.03.31-.09l-.21-1.62c.09-.04.19-.07.37-.05l.26,1.62c.12.03.33,0,.45-.08l-.27-1.5c-.02-.09.06-.18.11-.18h.24s.32,1.6.32,1.6c.09.03.28.01.43-.05l-.32-1.52c-.02-.11.1-.25.32-.21l.36,1.55c.03.13.43.07.4-.07l-.3-1.62c.21-.1.35-.01.39.12l.34,1.44c.11.06.43-.05.41-.13l-.37-1.54c-.03-.11.32-.17.36-.02l.38,1.42c.04.14.47.04.43-.08l-.41-1.44c-.05-.19.3-.3.34-.17l.48,1.53c.2-.02.33-.07.42-.14l-.52-1.57c.13-.08.23-.1.38-.09l.5,1.52c.03.08.4-.02.39-.14-.09-.93-.91-1.69-.15-1.65l.56,1.55c.14,0,.37-.12.41-.24l-.52-1.42c-.06-.15.31-.23.35-.14.19.5.29,1,.6,1.45.06.08.39-.12.35-.22l-.54-1.43c-.05-.12.29-.2.33-.09l.6,1.47.41-.15-.67-1.57c.11-.09.21-.12.34-.13l.69,1.46c.04.08.41-.08.37-.17l-.62-1.42c-.06-.15.28-.26.34-.12l.67,1.41c.18-.06.26-.11.4-.22l-.65-1.24c-.06-.12-.06-.22-.03-.28.03-.05.24-.13.27-.07l.76,1.39c.05.09.39-.15.34-.24l-.71-1.34c-.05-.09.27-.27.31-.19l.8,1.43c.19-.1.29-.17.37-.27l-.79-1.42c-.04-.07.28-.21.33-.13l.81,1.39c.15-.05.25-.11.37-.24l-.79-1.28c-.1-.16.17-.38.24-.28l.85,1.28c.1.15.45-.11.38-.22l-.81-1.25c-.08-.13.19-.35.26-.25l.91,1.35c.16-.07.24-.14.38-.27l-.82-1.18c-.11-.15-.06-.26.07-.34.08-.04.16-.04.23.07l.85,1.24c.16-.07.24-.13.36-.27l-.96-1.35c.06-.1.17-.18.22-.19.06,0,.13.04.19.12l.87,1.19c.19-.08.31-.23.32-.33l-.96-1.27c.12-.22.3-.21.39-.09l.9,1.15c.12,0,.3-.12.37-.26l-1.01-1.28s.17-.23.22-.21c.05.03.13.07.2.16l.91,1.06c.06.07.36-.24.3-.31l-.86-.99c-.08-.09-.13-.17-.15-.24-.01-.06.21-.24.25-.2l1.08,1.21c.11-.05.24-.13.36-.28l-.96-1.06c-.11-.12-.13-.19-.06-.31.04-.08.2-.14.29-.03l1.02,1.13c.17-.12.24-.19.33-.31l-.95-.99c-.1-.11-.12-.13-.14-.22-.02-.06.16-.27.22-.21l1.16,1.16c.14-.1.22-.19.33-.34l-1.12-1.09c-.1-.1.12-.38.21-.3l1.16,1.12c.15-.09.24-.17.34-.33l-1.01-.94c-.1-.1-.16-.16-.14-.26,0-.07.18-.23.24-.18l1.17,1.12.33-.34-1.03-.91c-.11-.1-.19-.15-.18-.27,0-.09.08-.13.15-.16.1-.03.17,0,.25.08l1.05.95c.15-.07.27-.24.26-.35l-1.03-.88c-.14-.12-.18-.2-.11-.33.04-.07.15-.15.26-.06l1.17.99c.16-.12.24-.25.26-.36l-1.14-.94c-.13-.1-.07-.2-.02-.27.03-.05.11-.16.22-.07l1.2.99c.14-.11.22-.24.28-.37l-1.25-.98c-.05-.04.07-.29.17-.3l1.3.93c.11.08.36-.26.25-.34l-1.25-.97c-.07-.05.17-.31.24-.26l1.29.95c.14-.14.19-.21.27-.38l-1.26-.84c-.11-.08-.1-.29.09-.37l1.29.84c.17.11.4-.26.28-.34l-1.14-.75c-.14-.09-.18-.18-.09-.31.03-.05.1-.15.22-.07l1.28.82c.1-.04.23-.26.23-.36l-1.2-.75c-.11-.07-.17-.12-.15-.21,0-.05.03-.12.14-.24l1.37.82c.08.05.32-.21.28-.34l-1.42-.87c.04-.14.1-.24.19-.31l1.4.82c.1-.09.17-.18.27-.37l-1.42-.79c-.06-.03.03-.29.13-.33l1.4.74c.09.05.34-.32.24-.37l-1.18-.63c-.1-.05-.2-.09-.23-.16-.02-.06.02-.24.13-.3l1.47.7c.08-.03.21-.22.22-.38l-1.44-.7c-.06-.03.01-.32.1-.33l1.49.66c.09.01.24-.34.16-.39l-1.4-.67c-.12-.06.02-.38.16-.33l1.41.57c.13.05.27-.32.12-.39l-1.45-.64c.02-.22.16-.3.23-.28l1.43.59c.12-.17.17-.25.19-.42l-1.53-.56c0-.18.03-.26.06-.31s.13-.06.22-.03l1.38.52c.13-.17.18-.32.15-.42l-1.51-.59c-.1-.04.06-.35.24-.28l1.38.49c.11-.02.23-.37.14-.41l-1.53-.54c.04-.19.06-.26.09-.29.03-.04.15,0,.22.02l1.41.44c.05-.13.1-.28.1-.41l-1.57-.49c0-.17.04-.25.07-.29.05-.05.17-.04.27,0l1.37.39c.06-.15.09-.28.1-.42l-1.56-.42c-.02-.15.01-.27.08-.37l1.56.43c.09-.12.13-.25.13-.43l-1.44-.35c-.13-.03-.21-.17-.11-.39l1.54.34c.12.03.28-.33.19-.38l-1.51-.37c-.13-.03-.1-.37,0-.35l1.62.28c.06-.1.09-.34.05-.4l-1.59-.32v-.25s.09-.12.18-.11l1.49.26c.07-.11.11-.31.08-.43l-1.61-.26c-.02-.18,0-.27.05-.38l1.61.25c.07-.1.1-.31.07-.43l-1.63-.25c-.01-.18.02-.29.05-.36l1.62.18c.09.01.11-.4-.01-.42l-1.52-.15c-.07-.05-.08-.31.01-.37l1.61.13c.09-.04.1-.4.01-.42l-1.6-.15c-.03-.15,0-.28.06-.38l1.55.11c.1,0,.17-.35.08-.41l-1.64-.1c-.03-.12-.04-.26.04-.37l1.62.07c.05-.1.08-.32,0-.46l-1.63-.05c-.04-.17,0-.3.04-.37l1.61.02c.08-.1.07-.37,0-.44l-1.63-.03c-.03-.12-.03-.29,0-.34s.16-.02.23-.02l1.42-.02c.06-.05.06-.35-.01-.43l-1.61.02c-.04-.07-.08-.2-.04-.37l1.64-.05c.07-.13.05-.36,0-.45l-1.5.07c-.08,0-.18-.06-.18-.1v-.26s1.61-.09,1.61-.09c.13,0,.1-.43-.04-.43l-1.54.07c-.11,0-.13-.34,0-.35l1.52-.14c.09,0,.07-.39-.02-.42l-1.62.13c-.08-.06-.08-.32,0-.36l1.52-.16c.11-.01.1-.43,0-.42l-1.64.15c-.11-.17-.02-.36.12-.38l1.48-.2c.01-.19,0-.28-.07-.44l-1.63.25c-.03-.1-.06-.19-.05-.37l1.62-.26c.02-.15,0-.29-.07-.44l-1.5.27c-.09.02-.18-.07-.18-.11v-.25s1.59-.32,1.59-.32c.04-.06,0-.3-.05-.4l-1.61.28c-.1.02-.14-.33,0-.36.53-.12,1.06-.14,1.49-.37.11-.06-.04-.41-.18-.37l-1.49.35s-.11-.25-.08-.35l1.58-.4c.02-.18-.03-.32-.11-.42l-1.56.4c-.07.02-.16-.32-.08-.34l1.55-.45c0-.14-.03-.29-.08-.42l-1.6.41c-.09.02-.16-.31-.09-.33l1.56-.47c-.02-.21-.07-.33-.16-.43l-1.55.49c-.06.02-.16-.31-.09-.33l1.5-.52c.09-.03-.03-.41-.14-.41l-1.5.49c-.06.02-.2-.25-.14-.31l1.51-.57c.05-.04-.02-.31-.13-.4l-1.49.52c-.16.05-.24-.31-.14-.35l1.48-.57c-.02-.15-.07-.25-.18-.41l-1.54.62c-.05-.08-.09-.19-.12-.37l1.53-.63-.15-.41-1.5.65c-.1.04-.25-.29-.15-.33l1.41-.66c.08-.04-.09-.41-.17-.37l-1.48.63c-.09.01-.18-.29-.11-.33l1.45-.7c-.03-.15-.14-.31-.23-.37l-1.45.71c-.12-.13-.15-.23-.14-.3,0-.06.07-.09.14-.13l1.1-.53c.14-.07.19-.19.14-.28-.02-.04-.07-.13-.17-.22l-1.44.75c-.11-.05-.19-.3-.14-.33l1.37-.76c.06-.1-.12-.38-.23-.38l-1.32.75c-.15.09-.34-.22-.19-.31l1.34-.83c.03-.13-.21-.38-.28-.33l-1.32.78c-.1.06-.26-.25-.16-.31l1.33-.85c.01-.09-.13-.33-.23-.36l-1.38.87c-.09,0-.23-.26-.19-.3l1.37-.9c-.08-.17-.13-.25-.28-.38l-1.31.9c-.08.05-.29-.23-.22-.29l1.28-.91c.1-.07-.15-.42-.29-.33l-1.28.86c-.09.06-.25-.24-.13-.33l1.19-.86c.07-.05-.05-.34-.19-.39l-1.28.94c-.11.08-.33-.19-.24-.26l1.25-1c-.05-.12-.14-.25-.28-.37l-1.2,1c-.11.09-.35-.17-.27-.24l1.24-1.03c-.08-.17-.16-.25-.3-.37l-1.24,1.04c-.06.05-.3-.19-.23-.25l1.18-1.07c.06-.07-.14-.33-.25-.34l-1.12.98c-.13.12-.32.02-.33-.11,0-.12.07-.17.18-.27l1.03-.91c-.12-.18-.19-.25-.33-.34l-1.18,1.1c-.09.08-.3-.2-.2-.29l1.13-1.08c-.1-.16-.19-.24-.34-.33l-1.17,1.12c-.08.07-.28-.21-.2-.3l1.11-1.09c-.1-.13-.18-.22-.34-.32l-1.15,1.16c-.05.06-.29-.19-.23-.24l1.11-1.17c-.09-.13-.16-.19-.34-.32l-.9,1.02c-.1.11-.15.18-.27.17-.1,0-.14-.08-.16-.14-.04-.1,0-.17.09-.25l.97-1.06c-.13-.15-.25-.22-.36-.29l-1.08,1.23c-.06.04-.3-.19-.25-.25l1.01-1.19c.06-.07-.22-.35-.31-.3l-1.05,1.21s-.28-.11-.27-.21l.98-1.27c.04-.08-.28-.32-.34-.25l-.96,1.23s-.27-.05-.31-.18l.94-1.27c0-.1-.13-.25-.31-.32l-.93,1.26c-.06.08-.33-.02-.32-.13l.88-1.29c.08-.12-.27-.39-.35-.28l-.92,1.26c-.06.09-.34-.13-.26-.24l.88-1.29c-.13-.14-.21-.2-.38-.28l-.9,1.37c-.03.05-.3-.1-.3-.18l.86-1.37c-.08-.11-.25-.23-.36-.24l-.84,1.33c-.07.11-.37-.06-.31-.16l.78-1.33c.07-.12-.3-.35-.37-.24l-.79,1.32c-.08.13-.4-.06-.31-.21l.78-1.34c-.08-.08-.17-.15-.36-.25l-.81,1.42c-.05.09-.36-.09-.31-.18l.74-1.4c-.16-.12-.26-.18-.39-.22l-.62,1.21c-.07.14-.1.24-.24.22-.12-.01-.24-.12-.16-.28l.66-1.32c-.07-.1-.21-.2-.38-.23l-.72,1.49c-.16-.03-.2-.07-.24-.09-.07-.05-.09-.11-.04-.22l.62-1.31c.03-.09-.33-.25-.37-.17l-.59,1.26c-.06.12-.11.18-.18.2-.04.01-.24-.07-.22-.13l.61-1.49c-.07-.1-.21-.19-.39-.21l-.65,1.52c-.06.05-.35-.07-.32-.13l.6-1.5c-.16-.12-.26-.16-.41-.18l-.59,1.51c-.13.02-.25-.02-.29-.06-.03-.03-.07-.13-.03-.22l.52-1.38c-.12-.11-.35-.17-.41-.13l-.56,1.52c-.18,0-.29-.06-.36-.13l.51-1.52c.04-.1-.36-.24-.39-.14l-.5,1.5c-.17.01-.27,0-.38-.08l.51-1.62c-.13-.04-.29-.08-.42-.08l-.51,1.57c-.08.04-.32-.06-.32-.11l.41-1.55c.03-.11-.39-.22-.43-.08l-.43,1.49c-.02.07-.35-.01-.33-.08l.39-1.61c-.13-.05-.31-.09-.41-.06l-.41,1.58c-.1.03-.31-.02-.34-.08l.33-1.57c.01-.07-.38-.17-.39-.11l-.37,1.55c-.02.09-.35.02-.33-.06l.3-1.62c-.12-.05-.36-.08-.42-.04l-.32,1.58c-.18.03-.27,0-.31-.05-.03-.03-.05-.15-.03-.22l.27-1.42c-.19-.07-.27-.08-.46-.07l-.25,1.57c-.01.09-.35.07-.35-.02l.21-1.6c-.12-.07-.26-.09-.44-.07l-.23,1.57c-.02.1-.36.08-.35,0l.16-1.6c.01-.1-.41-.11-.42,0l-.17,1.57c-.13.03-.29.03-.36-.04l.14-1.62c-.03-.09-.41-.1-.42-.01l-.15,1.58c-.11.08-.36.02-.36-.05l.09-1.59c-.15-.05-.26-.06-.43-.05l-.1,1.67h-.26s-.09-.09-.09-.18l.08-1.5c-.15-.04-.27-.06-.48,0l-.03,1.66c-.18.02-.3,0-.37-.05l.02-1.61c-.09-.07-.36-.07-.44-.01l-.03,1.65c-.17.03-.31,0-.36-.04l-.02-1.62c-.08-.06-.34-.06-.43.01l.02,1.61c-.07.04-.2.07-.37.04l-.04-1.63c-.1-.04-.27-.05-.44-.04l.03,1.71h-.37s-.06-1.67-.06-1.67c-.17-.01-.27,0-.43.05l.09,1.6c0,.11-.35.14-.36,0l-.14-1.52c0-.09-.4-.07-.42.02l.13,1.62c-.06.08-.32.08-.36,0l-.17-1.52c-.01-.12-.43-.1-.42,0l.16,1.64c-.15.08-.35.02-.36-.04l-.23-1.55c-.12-.05-.35,0-.43.06l.23,1.61c-.07.05-.2.09-.37.05l-.23-1.52c-.02-.09-.37-.12-.45-.02l.25,1.51c.01.09-.06.18-.1.18h-.25s-.32-1.59-.32-1.59c-.06-.04-.3-.01-.41.04l.3,1.62c.01.08-.31.14-.33.06l-.36-1.52c-.03-.13-.44-.02-.41.15l.34,1.51c-.07.04-.2.07-.36.08l-.39-1.6c-.1-.06-.43.06-.41.14l.38,1.55c.02.08-.31.16-.33.08l-.45-1.56c-.21,0-.34.06-.43.14l.45,1.55c-.06.06-.2.13-.35.12l-.5-1.57c-.1-.04-.4.08-.4.16l.5,1.51c-.13.11-.23.13-.38.13l-.51-1.5c-.05-.14-.45.03-.39.2l.52,1.49-.35.08-.58-1.53c-.07-.08-.42.1-.39.2l.53,1.44c.04.12-.32.21-.36.12-.17-.46-.3-1.02-.59-1.44-.07-.1-.4.12-.36.21l.56,1.34c.07.17-.29.32-.34.18l-.62-1.47c-.21.04-.31.09-.41.19l.64,1.44c.06.12-.28.27-.34.15-.23-.44-.35-.92-.66-1.4-.05-.07-.39.07-.36.17.14.53.56.98.61,1.48.01.12-.3.17-.35.06l-.66-1.4c-.19.06-.28.11-.4.22l.73,1.47c-.09.11-.25.15-.31.13-.08-.02-.1-.13-.16-.23l-.62-1.18c-.1-.06-.39.15-.36.25l.71,1.34c.05.1-.26.27-.3.18l-.8-1.43c-.19.1-.29.18-.37.26l.77,1.32c.07.12-.08.25-.17.24-.08,0-.14-.02-.2-.12l-.77-1.26c-.12-.03-.38.2-.33.28l.82,1.36c-.12.11-.18.13-.23.15s-.11,0-.16-.08l-.78-1.24c-.1-.02-.37.13-.37.2l.85,1.38c-.02.09-.24.22-.3.19l-.9-1.36c-.17.07-.26.12-.38.25l.89,1.3c.08.11-.21.33-.28.23l-.93-1.32c-.18.03-.37.26-.31.34l.91,1.29c-.04.08-.24.2-.3.19l-.99-1.32c-.19.08-.31.23-.32.32l.92,1.2c.09.12-.18.33-.26.24l-.99-1.23c-.13.05-.26.14-.36.27l1.03,1.28c-.27.54-.65-.29-1.3-1.04-.18.03-.36.25-.32.34l.98,1.19c.05.06-.12.23-.18.23-.24-.01-.64-.76-1.17-1.23l-.32.3,1.01,1.12c.09.1.05.25-.05.31-.23.15-.65-.64-1.25-1.18-.16.12-.23.19-.33.33l1.11,1.17c.08.08-.21.31-.29.22l-1.08-1.15c-.15.11-.23.2-.33.33l1.15,1.16s-.2.29-.25.25l-1.16-1.15c-.14.1-.23.18-.33.33l1.13,1.09c.12.12-.15.38-.27.27l-1.1-1.1c-.15.11-.2.18-.33.36l1.01.9c.12.1.17.15.18.27,0,.09-.18.24-.26.16l-1.2-1.05c-.14.1-.24.23-.28.34l1.22,1.08c.05.05-.18.29-.24.24l-1.24-1.04c-.17.16-.23.21-.31.36.43.33.84.65,1.27,1.02,0,.08-.08.22-.21.31l-1.27-1.05c-.14.11-.23.23-.28.36l1.25,1c.09.07-.14.35-.25.26l-1.19-.92c-.1.01-.25.13-.32.31l1.31.99c0,.08-.08.23-.19.31l-1.35-.98c-.15.14-.21.21-.29.36l1.33.93c.09.06-.12.35-.24.28l-1.29-.89c-.14.13-.19.21-.25.39l1.35.9c.03.06-.09.27-.2.3l-1.31-.85c-.08-.05-.33.23-.28.33l1.34.87c.08.05-.09.36-.18.31l-1.33-.78c-.13-.07-.36.3-.23.37l1.3.78c.1.06.02.24-.06.28-.11.05-.17.01-.3-.07l-1.17-.68c-.13.11-.22.25-.24.4l1.4.77c.09.05-.1.37-.18.32l-1.35-.73c-.09-.05-.33.3-.23.35l1.26.67c.11.06.15.11.14.21,0,.05-.03.11-.13.23l-1.46-.72c-.08.01-.23.26-.21.37l1.43.72c.1.05-.06.37-.15.33l-1.43-.68c-.12.14-.17.26-.22.4l1.48.67c.09.04-.04.38-.18.32l-1.43-.6c-.12-.05-.27.35-.11.41l1.43.59c-.02.17-.06.27-.13.36l-1.52-.61c-.12.16-.17.26-.19.41l1.51.58c.07.12-.06.38-.16.34l-1.48-.55c-.12.15-.18.34-.14.42l1.52.55c0,.18-.05.3-.12.35l-1.53-.53c-.11.02-.22.38-.13.42l1.5.5c0,.16-.02.27-.08.38l-1.62-.51c-.05.13-.09.29-.09.41.49.22,1.08.33,1.56.49,0,.14-.05.3-.11.34l-1.55-.42c-.12-.03-.23.39-.08.43l1.49.42c.08.02-.01.35-.08.33l-1.56-.41c-.08.12-.13.25-.11.43.52.18,1.07.27,1.57.41.03.1-.02.32-.07.35l-1.59-.34c-.07.06-.12.31-.12.4l1.59.36c.06.07.01.33-.07.35l-1.62-.3-.09.44,1.59.32c.11.02.03.36-.12.33l-1.52-.27c-.07.11-.11.3-.08.44l1.62.25c0,.18-.02.28-.05.36l-1.63-.2c-.1-.01-.11.42,0,.43l1.29.17c.08.01.21,0,.24.05.03.05.05.18,0,.34l-1.64-.17c-.1.01-.11.42,0,.43l1.56.15c.03.1.04.25,0,.39l-1.65-.16c-.08.12-.09.37-.01.45l1.59.16c.08.04.03.35-.06.35l-1.58-.07c-.09.05-.09.41,0,.42l1.61.09c.03.19,0,.28-.04.32-.03.02-.17.03-.24.03l-1.39-.07c-.05.1-.08.32,0,.46l1.64.05c.03.17,0,.3-.04.37l-1.61-.02c-.07.1-.07.36-.01.44h1.64c.04.13.03.27,0,.39H.54c-.05.1-.05.34.02.46l1.6-.02c.08.06.08.32,0,.37l-1.61.03c-.06.21-.04.33,0,.47l1.68-.05c.02.12.01.27-.02.34l-1.58.08c-.13,0-.1.43.04.42l1.54-.1c.06.1.09.22.07.39l-1.64.11c-.04.17-.03.29.02.48l1.66-.17c.04.11.04.22.03.37l-1.57.18c-.11.01-.1.43,0,.42l1.64-.16c.08.15.02.35-.04.36l-1.55.23c-.04.11,0,.36.06.42l1.61-.22c.06.07.1.2.07.37l-1.62.26c-.03.13,0,.32.08.43l1.4-.25c.12-.02.25.03.28.1.01.04,0,.1,0,.24l-1.59.33c-.04.07,0,.29.05.4l1.62-.29c.08-.01.12.31.05.33l-1.51.36c-.14.03-.03.45.15.41l1.51-.34s.08.24.05.35l-1.58.4c-.02.19.03.32.12.44l1.55-.41c.07-.01.15.31.08.34l-1.54.46c-.07.1.07.42.15.4l1.53-.41c.1-.03.17.31.09.34l-1.55.47.1.41,1.6-.5c.07.12.1.22.1.37l-1.51.51c-.12.04.04.44.19.39l1.45-.49c.07-.02.21.27.14.31l-1.51.58c-.06.02.02.31.13.39l1.38-.51c.13-.05.23.02.26.1.01.04.02.09.02.24l-1.52.56c.02.16.06.25.18.42l1.4-.59c.14-.06.31.24.22.28l-1.46.71c-.08.04.1.39.18.36l1.5-.59c.09-.03.16.27.11.3l-.17.09-1.27.57c-.08.04.1.42.18.39l1.43-.65c.1-.05.26.27.16.32l-1.44.71c.02.14.13.31.23.37l1.45-.72c.12.14.14.24.13.31-.01.1-.13.11-.22.16l-1.17.63c-.08.06.14.39.24.35l1.35-.72c.09-.05.26.27.18.31l-1.4.77c0,.12.13.35.25.38l1.4-.77c.1,0,.2.29.12.33l-1.35.82c-.03.13.21.38.28.34l1.32-.8c.06-.04.24.2.19.29l-1.36.88c.03.13.1.25.24.37l1.36-.87c.09.03.21.24.19.3l-1.37.9c.08.17.14.25.27.38l1.29-.88c.11-.08.33.2.22.28l-1.29.95c-.02.11.24.36.32.3l1.29-.93c.08.04.21.26.18.3l-1.29,1.01c-.02.14.23.36.3.31l1.2-.92c.11-.09.34.19.24.27l-1.21.97c-.05.08.15.35.25.34l1.28-.98c.09-.01.25.24.2.28l-1.2.99c-.08.07.09.38.23.36l1.26-.99c.05-.04.25.16.23.26l-1.2,1.06c-.07.06.18.38.25.31l1.06-.91c.11-.1.22-.12.32-.06.08.05.09.12.08.2-.02.09-.09.13-.17.2l-1.01.9c.12.18.18.25.31.34l1.11-1.06c.06-.06.15-.04.19-.02.04.02.14.17.12.2l-1.17,1.15c.1.14.2.23.33.33l1.16-1.14c.06-.06.29.19.23.25l-1.13,1.15c.09.15.18.24.32.34l1.09-1.13c.12-.12.38.14.27.26l-1.08,1.12c.09.13.16.2.33.32l.9-1.02c.1-.11.15-.19.27-.17.09,0,.14.09.16.14.04.1,0,.17-.08.25l-.98,1.05.33.32.99-1.14c.12-.13.25-.09.32,0,.06.09.05.16-.05.27l-.89,1.04c-.02.11.14.31.32.36l1.02-1.26s.28.11.3.21l-1.04,1.27c.1.14.23.23.37.28l1-1.24c.07-.09.34.12.25.24l-.93,1.25c.11.19.34.28.39.21l.95-1.24c.06-.08.32.17.27.24l-.95,1.28c.14.15.22.21.36.27l.98-1.36c.15.02.27.22.23.27l-.88,1.29c.12.13.21.19.38.26l.9-1.36s.29.11.28.19l-.85,1.37c.05.1.26.24.36.24l.79-1.27c.05-.08.12-.11.17-.1.04,0,.11.05.22.16l-.81,1.36c-.04.08.21.31.33.28l.82-1.37c.05-.09.37.06.33.13l-.79,1.43c.08.08.17.15.36.26l.81-1.43c.05-.09.36.09.32.18l-.74,1.4c.16.12.25.18.41.22l.59-1.23c.08-.16.11-.21.25-.21.07,0,.23.09.19.19l-.68,1.4c.08.1.21.19.38.23l.71-1.45c.05-.09.36.06.32.16l-.65,1.43c-.02.09.35.25.39.16l.67-1.4c.05-.11.38.03.33.15l-.64,1.49.41.14.63-1.53c.17.01.27.06.35.13l-.59,1.46c-.04.1.3.31.36.22.31-.48.44-1.02.6-1.48.17-.06.38.06.35.16l-.52,1.43c-.03.09.3.27.39.2l.58-1.52c.06-.05.33.08.31.14l-.49,1.5c0,.11.37.24.4.15l.51-1.51c.15,0,.25.01.37.09l-.51,1.6c.14.05.28.1.42.1l.47-1.54c.02-.07.34,0,.34.08l-.42,1.6c.16.06.25.09.42.1l.45-1.56c.04-.07.35,0,.33.08l-.37,1.55c-.03.13.39.21.43.05l.36-1.51c.18,0,.27.03.37.06l-.35,1.6c.06.08.32.17.4.13l.37-1.57c.02-.07.35-.02.34.05l-.31,1.62c.14.06.32.09.42.05l.32-1.6c.18-.02.27,0,.31.05.03.03.05.15.03.22l-.25,1.32c-.02.11.22.2.32.16.08-.03.16-.16.18-.31l.19-1.32c.18,0,.27.02.37.06l-.24,1.61c.12.07.26.1.44.07l.22-1.55c0-.06.22-.12.37-.04l-.16,1.64c0,.1.4.12.42,0l.17-1.57c.16-.02.26-.02.38.03l-.15,1.63c.04.09.41.1.42.01l.15-1.58c.11-.08.36-.02.36.05l-.07,1.58c.06.1.41.08.41-.02l.1-1.6h.26s.09.09.08.18l-.06,1.47c.04.08.36.11.44.03l.06-1.65c.17-.03.3,0,.37.05v1.61c.06.08.37.07.42.01l.02-1.64c.11-.04.26-.04.37,0l.02,1.64c.05.06.34.06.43-.02l-.02-1.61c.07-.03.19-.06.37-.05l.03,1.66c.2.04.33.03.47-.01l-.05-1.67c.13-.03.28-.02.34.03l.08,1.63c.12.04.35.02.43-.06Z"/>
  <path class="st0" d="M22.86,55.17c-.2.37-.58.05-.7.17l-1.64,3.02c-.12.21.24.41.26.78l-2.23-1.16c-.52-.27-.58-.89-.35-1.34s.69-.69,1.28-.66l-.2-1.99-.29-.78c.38.01,1.07.29,1.11.71l.2,2.18c0,.06.12.14.3.18.28-.41.67-.97.72-1.51-.18-.09-.4-.32-.21-.5l1.73.89ZM20.48,56.6c-.64-.41-1.12-.21-1.4.25-.21.25-.2.6-.09.85.08.19.49.57.67.37.39-.44.58-1.01.83-1.48Z"/>
  <path class="st0" d="M6.1,44.49c-.34-.44-.33-.83-.55-1.28l2.05-3.6-2.2.76c-.55.19-.22.76-.48.73-.08,0-.11-.01-.16-.17l-.37-1.25c.28-.1.37.18.49.34,1.3-.25,3.82-1.4,3.99-1.16.05.08.05.17-.01.28l-2.28,4.04c1.06-.32,1.95-.65,2.92-1.05.03-.22-.05-.43.21-.63l.51,1.53c-.31-.04-.37-.25-.55-.38l-3.27,1.08c-.27.09-.2.44-.31.77Z"/>
  <path class="st0" d="M21.43,8.52c-.43-.07-.79.2-1.16.39.22.48.4,1.05.79,1.45.23.24.62-.08.81-.16.62-.27.82-.72.73-1.48.48.36.34.78.51,1.25l-3.14,1.57c-.09-.36.19-.46.29-.66l-1.6-3.19c-.23-.02-.47.09-.71-.16l2.95-1.51.57,1.03c-.42.1-.46-.25-.69-.39-.55,0-.98.23-1.37.55.22.52.4.92.69,1.41.39-.14.7-.31,1.05-.57-.02-.23-.11-.43.12-.66l.71,1.35c-.28.23-.42-.18-.55-.21Z"/>
  <path class="st0" d="M57.92,24.85c.23-.39-.03-.86-.22-1.29-.51.16-1.07.27-1.53.59-.25.17,0,.63.05.82.19.62.6.95,1.25.89v.27s-1.19.1-1.19.1l-1.1-3.33c.35-.02.4.24.57.4l3.19-1.06c.5-.17.11-.77.54-.71l1.05,3.05c-.37.14-.68.37-1.13.41.05-.35.3-.41.48-.57.11-.53-.03-1.06-.34-1.48l-1.47.47c.11.92.61,1.46.81,1.18.05-.07.28.15.16.19l-1.3.48s-.11-.16-.11-.2c0-.06.23-.11.29-.21Z"/>
  <path class="st0" d="M7.95,28.16c.13.08.29-.33.53-.42.05.57-.21,1.06-.28,1.66-.32-.13-.27-.36-.36-.58-1.11-.9-2.23-1.65-3.41-2.45-.13-.09-.16-.39-.16-.62l4.42-.46c.12-.21.23-.42.52-.37l-.43,1.92c-.31-.12-.25-.34-.26-.58-.5-.09-.91-.04-1.37.06l-.27,1.22,1.06.62ZM6.52,27.31l.24-.99-1.44.13,1.21.85Z"/>
  <path class="st0" d="M22.92,59.98c-.45-.11-.87-.4-.97-.82-.14-.55.11-1.13.53-1.43.44-.32,1.15-.51,1.66,0-.69.06-1.11.19-1.29.8-.08.28-.18.62.02.92.14.2.48.4.79.4l1.11-3.29c.08-.24-.03-.46-.27-.53-.14-.04-.05-.3.02-.27l1.79.64c-.24.24-.47.16-.66.25l-1.06,3.05c-.12.34.07.49.36.85-.74-.03-1.28-.37-2.03-.55Z"/>
  <path class="st0" d="M46.71,52.77l1.53-1.3c.12.31-.06.45-.15.66l1.05.75.99-.78c-.1-.44-.22-.83-.52-1.24-.22.02-.39.21-.69.05l1.39-1.12c-.07.49-.18.7-.07,1.05l1.08,3.28c.1.3.1.82-.21.89l-3.59-2.15-.82-.08ZM50.74,53.85l-.45-1.39-.78.69,1.23.71Z"/>
  <path class="st0" d="M56.75,47.84c-.62,0-1.1-.43-1.24-.8-.22-.57-.27-1.2.31-1.61-.1.7.01,1.13.56,1.41.28.14.58.27.92.12.2-.09.45-.34.5-.67l-3.24-1.79c-.22.07-.29.34-.67.28l1.06-1.78c.05.45-.07.72.27.9l2.98,1.58c.15-.16.27-.44.57-.25l-1.01,1.89c-.19.36-.51.71-1.02.71Z"/>
  <path class="st0" d="M38.88,56.46l1.8-.73c.05.35-.23.4-.37.58l.75,1.07,1.19-.42c.06-.41.04-.82-.01-1.27l-.68-.23,1.57-.63c.1.37-.27.47-.28.65l-.23,4.11c-.01.21-.25.4-.45.5l-2.53-3.2c-.17-.22-.29-.21-.77-.44ZM42.21,58.86l.06-1.48-.95.33.89,1.15Z"/>
  <path class="st0" d="M4.84,34.22c.14-.03.15.12.14.17-.06.18-1.01.38-.93,1.53.03.47.31,1,.83,1.26.84.43,1.9.26,2.62-.34.47-.39.62-.97.48-1.53-.29-1.2-1.57-.94-1.38-1.4l1.16.04c.59.89.87,2.01.46,3.03-.38.95-1.35,1.39-2.32,1.33s-1.77-.73-2.08-1.73c-.21-.68-.14-1.41,0-2.11l1.02-.25Z"/>
  <path class="st0" d="M10.92,51.14l1.4-2.47-2.67.78c-.16.05.04.47-.08.71l-1.06-1.22c.31-.18.46.02.69.1l4.48-1.14-1.96,3.59c-.19.34-.21.57-.2,1.12l-1.32-1.6c.29-.1.42.06.7.13Z"/>
  <path class="st0" d="M9.56,23.67l-.95-.21c-.13-.03-.14-.19-.08-.28.13-.19.75.13,1.21-.29.23-.21.39-.57.28-.93-.14-.47-.65-.61-1.06-.37-.8.46-1.54,1.21-2.42.65s-.69-1.88.19-2.65l.68.19c.14.04.22.11.19.24-.05.27-.67-.1-1.06.38-.2.24-.29.61-.09.91s.59.34.87.16l1-.64c.46-.3.97-.34,1.44-.08.42.24.73.73.69,1.3-.04.63-.37,1.16-.88,1.62Z"/>
  <path class="st0" d="M48.66,56.98c-1.08.39-2.39,1.12-3.31,1.91-.12-.5-.27-.82-.28-1.31.35.06.35.34.52.51.42-.03.72-.19,1-.45l-1.85-3.19c-.25-.03-.48.12-.77-.13l1.82-1.04c.06.33-.18.46-.29.71l1.83,3.21c.53-.11.92-.55.79-1.09-.1-.41.36-.53.54.87Z"/>
  <path class="st0" d="M27.57,7.36v1.21s-3.23.87-3.23.87c0-.34.25-.41.41-.57-.28-1.21-.58-2.3-.97-3.46-.15-.08-.46.01-.64-.26l1.88-.55c.14.22-.04.42-.37.46.27,1.17.51,2.34.97,3.47.45.32,1.5-.11,1.62-.71.05-.23-.05-.44.34-.46Z"/>
  <path class="st0" d="M54.9,51.18c-.28-.24-.08-.44-.01-.71l-2.71-2.2c-.36-.13-.71.45-.87.7-.2.33-.1.86.08,1.33-.53-.14-.54-.57-.84-.94l2.13-2.61c.19.28.05.45,0,.72l2.85,2.32c.19-.13.41-.36.63-.11l-1.24,1.49Z"/>
  <path class="st0" d="M42.24,9.27c-.18.46.5.64.24.79-.05.03-.17.02-.27-.03l-1.55-.67c.22-.19.64-.09.71-.26l1.23-3.19c.07-.18-.31-.36-.34-.67l1.92.75c-.24.21-.63.07-.72.24l-1.21,3.04Z"/>
  <path class="st0" d="M8.06,32.01c-.36.02-.29-.34-.43-.51l-3.34-.22c-.26-.02-.42.15-.45.4-.01.12-.28.09-.27,0l.17-1.86c.27.14.25.37.33.56,1.15.12,2.24.18,3.39.23.33.01.38-.27.64-.57.13.67-.02,1.21-.04,1.97Z"/>
  <path class="st0" d="M7.86,47.72l-1-1.75c.43.13.61.34.9.17l2.86-1.64c0-.25-.11-.46.14-.71l.98,1.7c-.31.11-.42-.11-.65-.24l-2.75,1.54c-.35.17-.36.34-.47.92Z"/>
  <path class="st0" d="M33.3,60.63c.09-.09.14-.17.25-.18-.01.06-.02.16-.09.18-.04,0-.15.01-.15,0Z"/>
  <path class="st0" d="M32.83,60c-.13.18-.16.42-.08.59s.41.18.55.04c-.11.41-.5.18-.69.2-.37.04-.6.13-.77-.21.23.14.54.14.65-.12.08-.18-.09-.38-.2-.57l.55.08Z"/>
  <path class="st0" d="M33.55,60.45c-.13-.52-.36-.47-.72-.45.16-.22.27-.51.15-.71-.15-.25-.46-.28-.65-.12-.2.16-.21.49-.04.75-.27,0-.42.11-.51.24-.07.11-.04.39.06.45-.22-.08-.27-.31-.37-.44-.21-.27-.35-.4-.35-.72,0-.26.22-.37.34-.59.15-.27.16-.48.4-.63s.46-.03.73-.04c.35-.01.58-.1.83.1.21.16.4.54.17.8-.09.1-.42.07-.4.35.01.15.06.37.24.44.1.04.4.12.41-.09l.02-.74c.59.58-.13.95-.31,1.4ZM32.37,58.97c.21-.16.17-.45,0-.59-.13-.11-.38-.04-.55.13-.19.19-.11.37.06.49.12.08.26.15.48-.02ZM33.47,58.68c-.06-.23-.41-.42-.6-.34-.2.09-.22.37-.16.5.07.14.27.23.41.22.15,0,.39-.18.35-.38ZM31.48,59.86c.27.14.48-.06.51-.19.03-.16.01-.35-.12-.44s-.36-.17-.48,0c-.11.15-.12.53.09.64Z"/>
  <path class="st0" d="M15.45,14.41c-.74-1.02-1.44-1.89-2.23-2.8-.14-.11-.44.13-.73,0l2.06-1.72c.91-.76,2.16-.59,2.92.3.87,1.01.81,2.47-.24,3.32l-1.95,1.57c-.14-.3.03-.41.17-.66ZM16.16,13.8c.68-.29,1.24-.83,1.23-1.57,0-.94-.77-1.93-1.7-2.13-.75-.16-1.39.33-1.88.86l2.34,2.83Z"/>
  <path class="st0" d="M37.29,6.55c-.06-.13-.22-.18-.39-.15-.14.52-.22.97-.28,1.57.15.15.44.15.48.52l-2-.37c.18-.31.45-.21.64-.31.28-1.21.45-2.29.66-3.55-.13-.17-.43-.16-.48-.52l2.35.4c.59.1.88.62.85,1.14-.02.55-.51.88-.97,1.13.17.71.57,1.45.91,2.08.03.06.22.11.27.15s.06.27-.07.27c-.3,0-.96-.02-1.09-.32l-.87-2.02ZM38.25,5.17c.05-.62-.44-.9-.98-.86l-.34,1.75c.31.1.67.08.92-.08.22-.14.38-.43.41-.81Z"/>
  <path class="st0" d="M18.18,53.37c0,1.35-1.09,2.44-2.44,2.44s-2.44-1.09-2.44-2.44,1.09-2.44,2.44-2.44,2.44,1.09,2.44,2.44ZM15.98,55.09c.84-.38,1.4-1.17,1.5-2.04.06-.54-.19-1.02-.52-1.27-.44-.33-.97-.37-1.47-.14-.77.35-1.32,1.07-1.49,1.89-.12.57.09,1.07.45,1.38.41.35.96.44,1.53.18Z"/>
  <path class="st0" d="M49.3,9.95c0,1.35-1.09,2.44-2.44,2.44s-2.44-1.09-2.44-2.44,1.09-2.44,2.44-2.44,2.44,1.09,2.44,2.44ZM47.13,11.74c.87-.43,1.39-1.31,1.44-2.21.03-.56-.24-1.01-.62-1.26-.42-.28-.93-.31-1.39-.07-.81.41-1.35,1.25-1.39,2.17-.02.55.22,1.01.61,1.27.35.23.87.34,1.35.1Z"/>
  <path class="st0" d="M56.92,35.44c.28-.04.33.21.32.47.49.08.93-.07,1.38-.2l.12-1.17c-.32-.25-.87-.61-1.29-.5-.08.14-.11.47-.4.37l.17-1.65c.32.11.3.33.41.53l3.7,2.04c.14.08.21.37.21.59l-4.35,1.02c-.08.13-.14.44-.46.4l.19-1.89ZM60.42,35.35l-1.32-.71-.09,1.04,1.41-.33Z"/>
  <path class="st0" d="M57.52,30.4c-.34.81-.09,1.67.72,1.88.09.02.11.23.04.28-.38-.03-.8-.09-1.16-.27l-.18-3.3c.31.13.36.54.58.52l3.44-.25c.16-.19.08-.49.46-.61l.14,2.02c-.38-.07-.37-.38-.54-.53l-3.5.25Z"/>
  <path class="st0" d="M44.19,31.44c-.78.28-1.54.15-2.42.22,1.32.22,2.56.17,3.89.22l7.51.25,1.92.2c.14.01.25.13.27.23.02.13-.09.29-.27.31l-2.14.21-11.19.31c1.03.94,2.38,1.19,3.71.97,1.04-.18,2.01.03,2.82.68,1.18.93,2.54.18,3.56.33,1.15.17,2.75,1.12,2.6,1.6-.05.15-.24.24-.43.18l-1.17-.35c-.86-.26-1.66-.29-2.51-.05-.91.26-1.79.18-2.55-.39-.62-.46-1.42-.64-2.19-.49-1.16.24-2.13,0-3.36-.2l6.16,2.77c1.73.78,3.4,1.5,5.02,2.45.15.09.28.27.23.41-.04.13-.26.2-.44.15l-3.19-1.03-9.2-3.55c.54,1.29,1.75,1.98,3.02,2.29,1,.24,1.81.77,2.3,1.67.34.62.89.95,1.56,1.17l1.58.51c.98.55,2.14,2.05,1.86,2.49-.06.1-.29.16-.44.04l-1.03-.83c-.69-.56-1.43-.88-2.31-.98-.93-.1-1.69-.54-2.16-1.33-1-1.66-2.89-1.07-4.4-2.52l-.12.08c0,.16.11.26.25.4l5.52,5.8c.81.85,2.51,2.68,2.28,3.02-.07.1-.27.15-.42.03l-1.5-1.21-8.28-7.84c.04,1.45.88,2.52,1.94,3.31.81.6,1.36,1.37,1.47,2.38.17,1.59,1.75,1.98,2.41,2.98s1.03,2.71.56,2.84c-.15.04-.34-.07-.45-.26l-1.05-1.87c-.45-.8-2.47-1.12-2.73-2.98-.12-.83-.58-1.45-1.21-1.97-1.31-.74-1.83-1.97-2.54-3.34l2.63,7c.56,1.49,2.16,5.53,1.81,5.87-.11.1-.33.05-.42-.12l-1.29-2.46-4.28-9.62c-.51,1.24-.2,2.58.49,3.71.56.92.77,1.9.47,2.94-.4,1.39.78,2.33,1.05,3.37.31,1.16.02,3.08-.53,3.03s-.22-1.43-.59-2.61-1.76-1.96-1.37-3.62c.19-.82.1-1.73-.41-2.44-.88-1.23-.88-2.52-1.01-4.05l-.2,5.73c-.09,2.55-.08,5.03-.39,7.54-.02.18-.14.34-.26.36-.14.02-.29-.07-.31-.27l-.21-2.15-.31-11.18c-.94,1.03-1.18,2.37-.97,3.7.16,1.01,0,1.96-.63,2.75-1,1.26-.22,2.58-.38,3.63-.18,1.18-1.14,2.76-1.6,2.6-.15-.05-.24-.24-.18-.44l.32-1.08c.26-.88.34-1.71.08-2.59-.28-.95-.15-1.84.43-2.62.44-.59.6-1.4.44-2.12-.25-1.17.02-2.13.19-3.37l-3.06,6.82c-.68,1.51-1.33,2.95-2.16,4.37-.09.15-.27.27-.4.23s-.2-.26-.14-.43l.82-2.59,3.78-9.85c-1.31.62-2,1.77-2.31,3.06-.24,1-.78,1.8-1.66,2.3-.61.34-.96.88-1.17,1.55l-.47,1.52c-.65,1.2-2.3,2.32-2.59,1.87-.05-.08-.09-.25.01-.37l.89-1.09c1.42-1.75.45-3.29,2.19-4.37.67-.42,1.23-1.1,1.36-1.91.25-1.52,1.18-2.44,2.16-3.63l-5.71,5.35c-1.08,1.02-4.12,3.97-4.53,3.69-.1-.07-.14-.27-.03-.41l1.15-1.44,7.88-8.33c-1.4.03-2.47.83-3.24,1.87-.64.87-1.45,1.44-2.53,1.56-1.45.16-1.9,1.72-2.81,2.34-1.02.7-2.77,1.07-2.9.6-.03-.11.02-.31.18-.4l1.14-.61c.78-.42,1.34-.97,1.77-1.74,1.15-2.06,2.84-1.02,3.9-2.65.6-.92,1.41-1.41,2.28-2.2l-8.67,3.28c-1.08.41-2.98,1.1-3.1.7-.03-.1.04-.28.16-.36,1.29-.77,2.58-1.38,3.97-1.99l8.11-3.57c-1.24-.51-2.59-.19-3.71.49-.92.56-1.89.77-2.93.47-1.38-.4-2.4.85-3.46,1.08-1.16.25-3-.02-2.95-.55.06-.56,1.53-.19,2.69-.62s1.9-1.74,3.63-1.33c.74.17,1.54.09,2.19-.34,1.24-.82,2.58-1.07,4.1-1.11l-9.13-.29c-1.46-.05-4.35-.12-4.41-.55s1.23-.48,2.3-.51l11.29-.32c-1.02-.96-2.38-1.19-3.7-.97-1.05.17-2.01-.04-2.82-.68-1.19-.94-2.5-.17-3.56-.33-1.13-.17-2.72-1.09-2.59-1.6.07-.29.73-.19,1.35.08,2.26.98,3.49-.8,5.32.53.62.45,1.43.65,2.19.49,1.16-.25,2.13.01,3.36.2l-6.08-2.73c-1.75-.79-3.45-1.53-5.1-2.49-.16-.09-.28-.27-.23-.41s.26-.19.44-.14c1.37.35,2.62.8,3.95,1.32l8.49,3.28c-.63-1.31-1.77-2-3.07-2.3-1-.24-1.81-.78-2.3-1.66-.72-1.3-2.13-1.15-3.06-1.64-1.14-.59-2.31-2.27-1.87-2.58.1-.07.32-.06.45.05l1.35,1.11c1.18.97,3.04.23,4.08,1.99.42.71,1.08,1.09,1.86,1.32,1.05.11,1.75.75,2.79,1.21l-5.8-6.17c-.83-.88-2.63-2.78-2.4-3.14.22-.33,1.27.58,1.97,1.24l8.21,7.78c-.04-1.45-.87-2.52-1.94-3.31-.8-.59-1.35-1.37-1.47-2.37-.19-1.62-1.69-1.97-2.36-2.92-.73-1.03-1.06-2.8-.6-2.9.14-.03.3.02.4.19l.95,1.73c.61,1.11,2.64,1.25,2.9,3.28.24,1.83,2.27,2.03,3.16,4.12l.2-.11-3.24-8.42c-.34-1.15-1.22-3.12-.76-3.27.14-.05.31.07.4.22.72,1.22,1.29,2.43,1.87,3.74l3.65,8.27c.51-1.25.2-2.59-.49-3.71-.54-.89-.77-1.84-.48-2.84.43-1.5-.77-2.41-1.04-3.46-.3-1.19-.02-3.09.52-3.03.14.01.27.14.29.33l.1,1.05c.09.99.37,1.81.97,2.56s.8,1.58.57,2.48c-.37,1.46.66,2.32,1.19,3.84.32.92.08,1.78.23,2.42l.2-3.9c.11-2.09.02-9.6.68-9.7.44-.07.5,1.47.53,2.63l.29,10.97c.95-1.04,1.19-2.38.98-3.71-.16-1,.01-1.96.63-2.74,1.02-1.29.19-2.6.39-3.73.29-1.58,1.53-3.01,1.72-2.37.25.83-.98,1.82-.34,4.07.25.87.13,1.76-.4,2.46s-.61,1.48-.5,2.31c.3,1.11-.06,2.07-.19,3.27l3.94-8.74c.46-1.02,1.29-2.82,1.68-2.69s-.36,2.23-.8,3.36l-3.66,9.51c1.31-.62,2-1.77,2.31-3.07.24-1,.78-1.8,1.66-2.3,1.37-.77,1.14-2.3,1.76-3.28.58-.91,1.99-1.99,2.41-1.72.1.07.17.29.04.44l-.94,1.16c-1.34,1.65-.38,3.25-2.2,4.35-1.71,1.03-1.03,2.98-2.72,4.62.16.09.33-.04.43-.13l5.87-5.57c.88-.84,2.86-2.7,3.2-2.45.1.08.14.26.03.41l-1.15,1.44-7.89,8.34c1.41-.05,2.49-.83,3.25-1.88.63-.87,1.45-1.44,2.53-1.56,1.47-.17,1.88-1.69,2.81-2.34,1.03-.72,2.81-1.05,2.91-.6.02.09,0,.27-.13.34l-1.12.62c-.81.44-1.4.99-1.85,1.78-1.16,2.07-2.88,1.01-3.96,2.71-.69,1.09-1.68,1.6-2.77,2.34l9.38-3.54,2.49-.78c.17-.05.39,0,.44.14.05.13-.08.33-.23.41-1.33.76-2.65,1.39-4.07,2.01l-7.95,3.5c1.24.5,2.58.2,3.71-.49.92-.56,1.89-.77,2.93-.47,1.39.4,2.37-.8,3.37-1.06,1.17-.3,3.09,0,3.04.53s-1.51.2-2.7.62c-1.1.39-1.91,1.74-3.63,1.32-1.57-.39-2.31.58-3.93,1.17ZM32.96,23.29c-.18-4.25.09-8.33-.36-12.55-.44,4.26-.19,8.39-.35,12.6.26.02.46.05.71-.04ZM31.18,23.42c.23-1.46-.12-2.7-.84-3.88-.45-.73-.65-1.57-.44-2.4.47-1.87-1.3-2.74-1.4-3.94l-.18-2.19c-.65,1.36-.29,2.75.46,3.9.48.73.67,1.54.44,2.38-.25.92-.07,1.79.44,2.6.7,1.14.98,2.36.66,3.7.37-.02.61-.07.88-.18ZM36.05,17.22c1.09-1.52-.16-2.96.17-4.02l.68-2.2c-1.04.96-1.35,2.38-1.08,3.73.18.89.04,1.75-.51,2.45s-.73,1.62-.58,2.55c.21,1.3,0,2.53-.8,3.66.29.14.56.17.87.19,1.71-2.67-.13-4.41,1.25-6.35ZM24.07,12.2c.06.09.16,0,.06-.06l-.06.06ZM36.48,24.11l4.14-10.48c.21-.54.4-.98.46-1.52-.53.81-.84,1.57-1.2,2.41l-4.04,9.38c.21.16.4.24.64.21ZM24.24,12.25l-.07.06c0,.39.17.72.34,1.14l4.21,10.65c.24.03.42-.06.63-.21l-4.03-9.37c-.35-.81-.7-1.55-1.07-2.26ZM27.76,24.6c-.37-1.43-1.17-2.45-2.29-3.23-.71-.49-1.17-1.23-1.3-2.07-.28-1.86-2.23-1.96-2.8-3.06l-1-1.94c-.06,1.5.8,2.7,2,3.5.67.45,1.12,1.15,1.22,1.93.12.92.57,1.66,1.33,2.2,1.12.8,1.89,1.87,2.11,3.25.33-.18.56-.29.73-.57ZM41.68,19.7c1.53-.93,1.05-2.82,1.57-3.47l1.57-1.93c-1.39.51-2.16,1.72-2.43,3.07-.17.86-.64,1.57-1.39,2-.82.46-1.3,1.2-1.51,2.13-.3,1.31-.98,2.38-2.18,3.11l.76.5c2.65-1.88,1.54-4.15,3.6-5.4ZM39.42,26.28c2.84-3.08,5.96-5.85,8.67-9.17-3.31,2.68-6.06,5.79-9.14,8.63.02.23.22.42.47.54ZM26.27,25.76c-3.06-2.81-5.74-5.88-9.09-8.58,2.65,3.27,5.77,6.03,8.6,9.1.24-.12.36-.25.49-.52ZM45.91,24.17c1.83-.28,2.02-2.23,2.93-2.7l2.1-1.09c-1.54-.1-2.72.8-3.52,2-.48.71-1.2,1.15-2.03,1.25-2.3.28-2.27,2.94-5.32,3.39.08.29.25.53.5.75,3.08-.66,3.02-3.23,5.35-3.59ZM25.11,27.11c-.82-1.1-1.91-1.83-3.25-2.12-.91-.19-1.67-.69-2.15-1.48-.94-1.54-2.83-1.03-3.54-1.61l-1.86-1.53c.51,1.39,1.73,2.16,3.07,2.43.9.18,1.61.67,2.05,1.46s1.19,1.24,2.07,1.45c1.31.31,2.39.99,3.11,2.18l.5-.77ZM35.31,23.72c.23-.17.37-.4.31-.73-.23.17-.37.4-.31.73ZM27.9,23.35l-.14.09c.03.16.07.3.25.4.06-.21,0-.34-.11-.49ZM41.48,32.6c0-4.91-3.98-8.89-8.89-8.89s-8.89,3.98-8.89,8.89,3.98,8.89,8.89,8.89,8.89-3.98,8.89-8.89ZM28.24,24.41c.11-.32-.06-.4-.17-.47-.11.25,0,.39.17.47ZM12.14,24.13c.06.09.16,0,.06-.06l-.06.06ZM12.31,24.18l-.03.08,1.35.66,10.27,4.44c.16-.21.24-.4.22-.64l-10.58-4.17c-.45-.18-.81-.34-1.23-.37ZM52.79,24.23h-.08s.08,0,.08,0h.16s-.08,0-.08,0h-.08ZM48.9,26.11c1.26-.68,2.69-.96,3.78-1.9l-11.61,4.49c0,.27.11.51.27.63l7.55-3.22ZM39.09,24.76l-.06.06.06.06.06-.06-.06-.06ZM38.69,25.35c0-.07-.06-.13-.13-.13s-.13.06-.13.13.06.13.13.13.13-.06.13-.13ZM24.82,25.93v.08s0,.08,0,.08v.08s0-.08,0-.08v-.16ZM25.19,26.31l-.18.2.36.32.18-.2-.36-.32ZM41.23,28.08c-.23-.13-.45-.02-.45.06,0,.16.22.17.29.13.06-.03.18-.14.17-.19ZM48.16,29.91c1.73.44,2.68-1.32,3.84-1.41l2.19-.18c-1.36-.65-2.75-.31-3.9.46-.72.48-1.55.66-2.38.44-.92-.25-1.8-.07-2.61.44-1.13.7-2.37.98-3.7.65l.15.87c3.08.61,4.09-1.84,6.4-1.26ZM23.58,30.4c-1.22-.76-2.56-.95-3.96-.71-.83.14-1.66-.02-2.32-.5-1.62-1.19-2.96.17-4.32-.25l-1.98-.61c1.08,1.07,2.46,1.32,3.84,1.04.84-.18,1.68.02,2.34.53.75.58,1.61.73,2.55.58,1.3-.21,2.53-.01,3.66.81.13-.3.17-.56.2-.87ZM23.72,29.89c-.17-.23-.4-.37-.73-.31.17.23.4.37.73.31ZM23.32,32.93c.05-.32.04-.47.01-.67l-12.7.27c.62.32,1.28.22,1.93.23l10.76.17ZM54.43,32.6c-4.29-.46-8.38-.19-12.55-.36-.05.27-.06.45,0,.71,4.19-.16,8.34.09,12.56-.35ZM17.28,35.99c.93.25,1.79.07,2.61-.43,1.13-.7,2.37-.97,3.7-.66l-.14-.87c-1.41-.26-2.71.08-3.91.83-.72.45-1.56.65-2.39.44-1.9-.48-2.73,1.32-4.05,1.42l-2.09.15c2.95,1.34,3.98-1.5,6.27-.88ZM52.25,36.27c.71.18,1.23.6,1.95.6-1.08-1.08-2.46-1.31-3.83-1.04-.84.16-1.69-.01-2.34-.53-.75-.59-1.61-.73-2.55-.58-1.3.21-2.53,0-3.65-.81-.15.29-.18.56-.19.88,1.2.75,2.55.96,3.94.71.82-.15,1.67.02,2.33.5,1.62,1.18,2.76-.14,4.35.26ZM42.2,35.62c-.17-.23-.4-.37-.73-.31.17.23.4.37.73.31ZM13.59,40.64l10.51-4.16c.04-.25-.07-.53-.26-.62l-8.03,3.45c-1.28.55-2.45,1.04-3.71,1.76.52-.02.93-.21,1.5-.43ZM52.95,40.95l-4.37-2-7.28-3.11c-.15.22-.23.4-.22.64l10.57,4.18c.45.18.81.34,1.23.36l.06-.07ZM24.26,37.18c.22-.01.18-.23.09-.25-.23-.06-.41.14-.4.18.01.04.14.08.31.07ZM23.63,37.38c.11-.05.19-.13.18-.17s-.13-.08-.23-.06c-.09.02-.21.13-.22.19,0,.04.14.1.26.04ZM49.07,43.32l1.83,1.51c-.52-1.39-1.73-2.15-3.08-2.43-.86-.18-1.57-.62-2-1.38-.47-.82-1.2-1.3-2.12-1.51-1.31-.3-2.38-1-3.1-2.18-.25.27-.37.48-.48.77.83,1.16,1.98,1.85,3.34,2.14.88.19,1.59.7,2.05,1.45.97,1.56,2.82,1.01,3.57,1.64ZM19.82,41.58c.89-.12,1.57-.59,2.1-1.3.8-1.09,1.81-1.88,3.22-2.09-.07-.3-.25-.54-.49-.75-1.37.32-2.43,1.1-3.23,2.22-.52.73-1.24,1.24-2.13,1.37-1.83.26-1.94,2.2-3.06,2.79l-1.93,1.02c3.36-.05,3.05-2.94,5.52-3.26ZM39.98,38.56c0-.07-.06-.13-.13-.13s-.13.06-.13.13.06.13.13.13.13-.06.13-.13ZM20.65,44.9l5.63-5.5c-.12-.23-.25-.37-.48-.49l-5.46,5.61-3.22,3.56c1.37-.93,2.31-2.1,3.54-3.19ZM48.04,48.11c-.9-1.52-2.14-2.38-3.16-3.59l-5.48-5.59c-.22.12-.36.26-.48.48l9.11,8.7ZM40.21,38.98c.06.09.16,0,.06-.06l-.06.06ZM40.36,39.14l.06-.06c-.06-.09-.16,0-.06.06ZM40.71,39.3c-.08-.12-.21-.09-.25.02l.25-.02ZM43.75,48.86l1.07,2.06c.08-1.45-.72-2.64-1.87-3.41-.72-.48-1.24-1.17-1.35-2.04-.11-.92-.57-1.66-1.33-2.2-1.12-.8-1.89-1.87-2.11-3.24-.34.17-.53.3-.74.51.32,1.38,1.11,2.45,2.23,3.24.73.51,1.24,1.25,1.37,2.13.27,1.81,2.23,2.01,2.72,2.95ZM20.37,50.9c1.41-.52,2.15-1.73,2.43-3.08.18-.86.63-1.58,1.38-2s1.28-1.14,1.49-2.04c.32-1.34.99-2.46,2.2-3.19-.28-.25-.49-.36-.77-.48-1.13.81-1.83,1.92-2.12,3.25-.19.87-.65,1.63-1.41,2.09-1.68,1.02-1,2.85-1.81,3.8l-1.4,1.65ZM53,41.13l.06-.06c-.06-.09-.16,0-.06.06ZM25.8,49.59l3.54-8.23c-.11-.17-.37-.29-.63-.27l-3.75,9.47c-.35.88-.69,1.65-.85,2.54.71-1.16,1.15-2.26,1.68-3.51ZM41.01,52.84c0-.3-.09-.5-.19-.77l-4.34-11c-.27,0-.5.1-.62.27l4.02,9.33,1.08,2.27.05-.1ZM29.58,42.2c.23-.17.37-.4.31-.73-.23.17-.37.4-.31.73ZM28.32,54.2c1.05-1.05,1.32-2.4,1.05-3.73-.18-.88-.02-1.74.52-2.44.58-.75.73-1.62.58-2.56-.21-1.29,0-2.53.81-3.65-.3-.14-.56-.17-.88-.19-.71,1.18-.96,2.48-.72,3.84.16.91,0,1.79-.53,2.52-1.09,1.47.18,2.95-.18,4.13l-.64,2.1ZM36.9,54.18c.63-1.35.3-2.74-.47-3.89-.47-.71-.66-1.55-.44-2.37.25-.93.07-1.8-.44-2.62-.7-1.13-.98-2.36-.65-3.7l-.87.15c-.25,1.37.06,2.65.79,3.82.5.79.7,1.67.47,2.59-.42,1.65,1.09,2.35,1.42,3.83l.19,2.18ZM32.9,46.83l.02-4.96h-.68c.13,4.2-.05,8.32.33,12.58.41-2.57.2-5.03.33-7.63ZM41.08,52.95l-.06.19c.14.06.18-.15.06-.19Z"/>
  <path class="st0" d="M33.53,31.54c.33.45,1.25.72,1.3.65.02-.03-.01-.18-.01-.21.41.41.91.58,1.3.23.36-.33.4-.9-.02-1.27-.3-.26-.78-.22-1.16.04-.05-.05-.13-.06-.14-.02l-1.08.32c.99-1.15,2.78-1.17,3.9-.12l.15.09-.18.06-.05-.06c-.4-.12-.7-.4-1.26-.4.32.42.38.86.12,1.35l1.19-.37c-1.64,1.27-2.49,1.02-4.06.09-.13-.08-.22-.07-.18-.26.01-.05.09-.1.17-.09Z"/>
  <path class="st0" d="M35.68,29.43h.59c.62.03,1.23.33,1.63.83-1.92-1.09-3.13-.73-4.73.74.2-.65.93-.84,1.33-1.38l1.17-.18Z"/>
  <path class="st0" d="M36.3,29.26c-.2,0-.39-.11-.62-.05-.38.1-.96.11-1.17.41-.34.11-.53.22-.96.41.14-.58.7-1.03,1.33-1.25,1.46-.49,3.18.03,4,1.37-.97-.28-1.65-.85-2.57-.88Z"/>
  <path class="st0" d="M31.43,30.04c-.04-.26-.41-.31-.65-.36-.09-.09-.14-.19-.28-.23l-.89-.23c-.22-.06-.42.03-.61.03-.94.03-1.66.59-2.65.9.8-1.33,2.47-1.83,3.91-1.41.63.19,1.1.6,1.45,1.18-.02.11-.13.13-.27.11Z"/>
  <path class="st0" d="M29.02,29.45h.59s1.16.23,1.16.23c.11.29.41.37.65.36.08.56.65.56.56.98-.76-.8-1.67-1.38-2.78-1.41-.66-.02-1.14.35-1.77.55.41-.47.99-.71,1.58-.71Z"/>
  <path class="st0" d="M30.43,30.94c-.05,0-.12-.04-.18.05-.38-.28-.86-.32-1.16-.06-.42.37-.39.94-.02,1.27s.89.18,1.27-.17c.03.02-.01.11.05.22.45-.12.79-.44,1.31-.44-1.45,1.15-2.66,1.12-4.1.02.39-.07.61.18.87.27l.21-.17c-.11-.35-.06-.73.25-1.12-.65,0-.92.42-1.58.53,1.08-1.13,2.91-1.38,4.1-.1-.43.06-.62-.32-1.02-.29ZM28.76,32.05l-.21.06c.06.12.22.08.21-.06Z"/>
  <path class="st0" d="M34.5,36.67c-.47-.11-.89-.84-1.38-.54-.37.23-.67.22-1.05,0-.36-.2-.94.11-1.03.56l-.32-.07c.23-.29.73-.87,1.15-.74.6.18.86.17,1.47,0,.41-.12,1,.51,1.17.78Z"/>
  <path class="st0" d="M34.5,36.67c.19.09.39.17.4.41l-.82.27c-.92.45-1.91.36-2.88.03l-.89-.3c.07-.3.28-.29.41-.45.05.21.17.21.29.18.04-.01.12-.03.03-.11.4.01.73-.05,1.11-.1,1.14-.17,2.16.45,2.36.07ZM34.22,37.02c-1.11-.31-2.14-.29-3.25,0,1.07.54,2.18.55,3.25,0Z"/>
  <path class="st0" d="M31.95,35.3c-.45-.14-.69.42-1.21.27-.39-.12-.56-.85-.29-1.2.32-.41.81-.13,1.33-.23.26-.95.38-1.89.37-2.88.44.14.12.5.12.65,0,.9-.09,1.63-.38,2.45-.57.06-1.11-.12-1.24.22-.09.23-.03.54.09.67.38.4.93-.45,1.28,0,.02.02.04.04.06.05.44.25.94.15,1.36-.25.26.14.52.33.81.32.24,0,.31-.22.34-.38s.05-.44-.18-.55c-.31-.15-.68-.03-1.03,0-.34-.79-.43-1.54-.45-2.4,0-.21-.31-.58.11-.78.05,1,.12,1.94.38,2.89.47.12.94-.16,1.28.16.31.29.2,1.06-.16,1.24-.58.29-.97-.57-1.38-.15-.34.34-.84.27-1.15-.03l-.06-.05Z"/>
  <path class="st0" d="M31.34,32.63c-.95,1.05-2.86,1.07-3.85-.04,1.32.73,2.49.8,3.85.04Z"/>
  <path class="st0" d="M33.7,32.6c-.07-.06-.06-.17.05-.15.04.09.09.11.11.11,1.1.82,2.5.83,3.83.03-1.02,1.17-2.8.99-3.92.08l-.07-.06Z"/>
  <path class="st0" d="M33.91,38.44c-1.24-.15-2.08-.33-3.07.45.42-1.01,2.19-1.04,3.07-.45Z"/>
  <circle class="st0" cx="35.6" cy="31.58" r=".48"/>
  <circle class="st0" cx="29.6" cy="31.57" r=".48"/>
  <path class="st0" d="M53.51,19.81l-1.28-2.08c.34-.11.46.13.71.23l2.98-1.82c.12-.1-.04-.45.13-.72l1.42,2.25c.63.99.33,2.17-.61,2.83-1.12.78-2.59.56-3.35-.68ZM57.18,18.33c-.03-.58-.31-1.09-.7-1.52l-3.05,1.9c.04.66.55,1.17,1.02,1.38,1.06.47,2.8-.61,2.74-1.76Z"/>
</svg>